<svg height="512pt" viewBox="-2 0 511 512" width="512pt" xmlns="http://www.w3.org/2000/svg"><path d="m420.230469 466.660156h-265.230469c-13.917969 0-25.199219-11.28125-25.199219-25.199218v-416.261719c0-13.917969 11.28125-25.199219 25.199219-25.199219h265.230469c13.917969 0 25.199219 11.28125 25.199219 25.199219v416.261719c0 13.917968-11.28125 25.199218-25.199219 25.199218zm0 0" fill="#426175"/><path d="m420.230469 0h-49.707031c13.917968 0 25.199218 11.28125 25.199218 25.199219v416.261719c0 13.917968-11.28125 25.199218-25.199218 25.199218h49.707031c13.917969 0 25.199219-11.28125 25.199219-25.199218v-416.261719c0-13.917969-11.28125-25.199219-25.199219-25.199219zm0 0" fill="#2c4456"/><path d="m129.800781 53.34375h315.628907v360.777344h-315.628907zm0 0" fill="#f2f2f2"/><path d="m395.722656 53.34375h49.707032v360.777344h-49.707032zm0 0" fill="#cdd6df"/><path d="m262.558594 325.523438h-237.003906c-13.835938 0-25.054688-11.21875-25.054688-25.054688v-164.867188c0-13.835937 11.21875-25.054687 25.054688-25.054687h237.003906c13.839844 0 25.054687 11.21875 25.054687 25.054687v164.867188c0 13.835938-11.214843 25.054688-25.054687 25.054688zm0 0" fill="#88dbfd"/><path d="m262.558594 110.546875h-30.230469v214.976563h30.230469c13.839844 0 25.054687-11.21875 25.054687-25.054688v-164.867188c0-13.835937-11.214843-25.054687-25.054687-25.054687zm0 0" fill="#5abfe9"/><g fill="#426175"><path d="m48.921875 222.207031 38.027344-24.871093c.578125-.433594 1.449219-.578126 2.171875-.578126 3.035156 0 6.941406 3.183594 6.941406 7.230469 0 1.734375-.867188 3.328125-2.171875 4.195313l-30.363281 19.953125 30.363281 19.957031c1.304687.722656 2.171875 2.3125 2.171875 4.191406 0 4.050782-3.90625 7.085938-6.941406 7.085938-.722656 0-1.59375-.144532-2.171875-.578125l-38.027344-24.871094c-2.167969-1.445313-3.183594-3.902344-3.183594-5.78125 0-1.882813 1.015625-4.484375 3.183594-5.933594zm0 0"/><path d="m176.453125 162.34375c0 .867188-.140625 1.589844-.574219 2.3125l-53.070312 105.851562c-.867188 1.734376-2.746094 2.746094-4.773438 2.746094-3.324218 0-5.636718-2.746094-5.636718-5.351562 0-.722656.144531-1.445313.433593-2.167969l53.210938-106.285156c.867187-1.878907 2.460937-2.601563 4.339843-2.601563 2.890626 0 6.070313 2.171875 6.070313 5.496094zm0 0"/><path d="m239.785156 233.921875-38.03125 24.871094c-.578125.433593-1.300781.578125-2.023437.578125-3.179688 0-6.941407-3.035156-6.941407-7.085938 0-1.878906.867188-3.472656 2.023438-4.195312l30.511719-19.953125-30.511719-19.957031c-1.15625-.867188-2.023438-2.457032-2.023438-4.191407 0-4.050781 3.761719-7.230469 6.941407-7.230469.722656 0 1.445312.144532 2.023437.578126l38.03125 24.871093c2.167969 1.445313 3.183594 4.046875 3.183594 5.929688 0 1.878906-.871094 4.339843-3.183594 5.785156zm0 0"/></g><path d="m402.664062 512c-7.621093 0-13.824218-6.203125-13.824218-13.824219v-4.40625c0-2.152343-1.402344-4.050781-3.410156-4.621093-5.683594-1.613282-11.199219-3.871094-16.394532-6.710938-.675781-.371094-1.441406-.566406-2.21875-.566406-1.265625 0-2.515625.519531-3.417968 1.425781l-3.070313 3.066406c-2.609375 2.613281-6.082031 4.050781-9.777344 4.050781-3.691406 0-7.164062-1.4375-9.773437-4.050781l-7.511719-7.507812c-2.609375-2.613281-4.046875-6.082031-4.046875-9.777344 0-3.691406 1.4375-7.164063 4.046875-9.773437l3.070313-3.070313c1.5-1.5 1.851562-3.820313.859374-5.636719-2.839843-5.195312-5.097656-10.710937-6.714843-16.394531-.570313-2.011719-2.46875-3.414063-4.617188-3.414063h-4.40625c-7.625 0-13.824219-6.199218-13.824219-13.824218v-10.621094c0-7.621094 6.199219-13.824219 13.824219-13.824219h4.777344c2.128906 0 4.035156-1.382812 4.632813-3.359375 1.671874-5.507812 3.953124-10.851562 6.78125-15.882812 1.035156-1.839844.699218-4.1875-.820313-5.707032l-3.5625-3.5625c-2.613281-2.613281-4.050781-6.082031-4.050781-9.777343 0-3.695313 1.4375-7.164063 4.050781-9.777344l7.507813-7.507813c2.613281-2.609374 6.085937-4.050781 9.777343-4.050781 3.691407 0 7.164063 1.441407 9.777344 4.050781l3.96875 3.96875c.902344.902344 2.144531 1.417969 3.414063 1.417969.769531 0 1.507812-.183593 2.1875-.542969 4.929687-2.617187 10.148437-4.71875 15.511718-6.242187 2.019532-.574219 3.429688-2.472656 3.429688-4.609375v-5.804688c0-7.621093 6.199218-13.824218 13.824218-13.824218h10.621094c7.621094 0 13.824219 6.203125 13.824219 13.824218v6.207032c0 2.101562 1.378906 3.984375 3.351563 4.585937 5.199218 1.574219 10.257812 3.695313 15.035156 6.304688.695312.378906 1.476562.578125 2.265625.578125 1.289062 0 2.5-.5 3.410156-1.414063l4.449219-4.449219c2.613281-2.613281 6.082031-4.050781 9.777344-4.050781 3.691406 0 7.164062 1.441407 9.777343 4.050781l7.507813 7.507813c5.390625 5.390625 5.390625 14.164063 0 19.554687l-4.449219 4.449219c-1.5 1.496094-1.84375 3.832031-.835937 5.675781 2.609374 4.777344 4.730468 9.839844 6.304687 15.039063.597656 1.96875 2.484375 3.347656 4.585937 3.347656h6.207032c7.621094 0 13.824218 6.203125 13.824218 13.824219v10.621094c0 7.625-6.203124 13.824218-13.824218 13.824218h-5.804688c-2.140625 0-4.035156 1.410157-4.609375 3.429688-1.523437 5.363281-3.625 10.582031-6.242187 15.511719-.964844 1.820312-.605469 4.125.875 5.605469l3.96875 3.96875c2.613281 2.609374 4.050781 6.082031 4.050781 9.773437 0 3.695313-1.4375 7.164063-4.050781 9.777344l-7.507813 7.507812c-2.613281 2.613281-6.085937 4.050781-9.777343 4.050781-3.695313 0-7.164063-1.4375-9.777344-4.050781l-3.5625-3.5625c-.914063-.914062-2.128906-1.417969-3.414063-1.417969-.804687 0-1.597656.207032-2.296875.601563-5.027344 2.828125-10.371094 5.105469-15.878906 6.777344-1.980469.597656-3.359375 2.503906-3.359375 4.636719v4.777343c0 7.621094-6.203125 13.824219-13.828125 13.824219zm5.3125-132.839844c-17.917968 0-32.492187 14.578125-32.492187 32.492188 0 17.917968 14.574219 32.496094 32.492187 32.496094 17.917969 0 32.492188-14.578126 32.492188-32.496094 0-17.914063-14.574219-32.492188-32.492188-32.492188zm0 0" fill="#fd715c"/></svg>